#!OML:ASF H:\Punching\Project 1\Capture day 1\Session 1\female.ASF
:FULLY-SPECIFIED
:DEGREES
95
root -0.29777 14.9135 -1.7758 9.11 0.115591 0.00989508
lowerback 2.77189 -1.40418 -0.573958
upperback -6.12549 -1.93776 -0.0984849
thorax -7.94807 -0.923404 0.40422
lowerneck -15.2206 -1.32154 4.09921
upperneck 37.4051 -2.15368 -3.41012
head 15.6555 -0.831845 -2.57819
rclavicle 1.3654e-014 9.93923e-016
rhumerus 33.1593 9.95053 -62.1659
rradius 64.9273
rwrist -1.98431
rhand 33.8711 -37.5462
rfingers 7.12502
rthumb 57.1495 -54.007
lclavicle 1.3654e-014 9.93923e-016
lhumerus 27.5433 -8.12617 56.8095
lradius 79.638
lwrist -9.05662
lhand 36.6482 27.0192
lfingers 7.12502
lthumb 59.5634 41.2498
rfemur -28.3768 -6.87363 16.9948
rtibia 51.6991
rfoot -28.7349 -8.5334
rtoes -12.3434
lfemur -28.9408 1.38675 -16.653
ltibia 50.3453
lfoot -25.2039 8.24513
ltoes -13.7057
96
root -0.296203 14.9137 -1.77655 9.10108 0.102045 0.000680894
lowerback 2.78536 -1.38329 -0.557011
upperback -6.12093 -1.90907 -0.105925
thorax -7.95208 -0.910542 0.384511
lowerneck -15.2073 -1.23716 4.18557
upperneck 37.4869 -2.05616 -3.40111
head 15.6984 -0.77477 -2.57591
rclavicle 3.8266e-015 6.55989e-015
rhumerus 33.1416 9.91073 -62.1868
rradius 64.9157
rwrist -1.87234
rhand 34.0044 -37.5335
rfingers 7.12502
rthumb 57.2666 -53.8952
lclavicle 3.8266e-015 6.55989e-015
lhumerus 27.5555 -8.16092 56.7858
lradius 79.6353
lwrist -9.0767
lhand 36.6604 27.0031
lfingers 7.12502
lthumb 59.5739 41.223
rfemur -28.3707 -6.85407 16.997
rtibia 51.697
rfoot -28.7293 -8.53889
rtoes -12.3725
lfemur -28.9339 1.41213 -16.6544
ltibia 50.356
lfoot -25.2198 8.24406
ltoes -13.6431
97
root -0.29365 14.9124 -1.77767 9.10637 0.111143 -0.0252614
lowerback 2.78759 -1.36597 -0.511288
upperback -6.1215 -1.88274 -0.10726
thorax -7.95571 -0.900408 0.355115
lowerneck -15.2152 -1.16796 4.25596
upperneck 37.5824 -1.97843 -3.39014
head 15.7525 -0.727712 -2.57423
rclavicle 1.26353e-014 3.18055e-015
rhumerus 33.1058 9.88413 -62.1794
rradius 64.904
rwrist -1.82594
rhand 34.0691 -37.5398
rfingers 7.12502
rthumb 57.3234 -53.8532
lclavicle 1.26353e-014 3.18055e-015
lhumerus 27.58 -8.19783 56.7779
lradius 79.6221
lwrist -9.10945
lhand 36.6486 26.9514
lfingers 7.12502
lthumb 59.5638 41.1817
rfemur -28.3741 -6.86189 17.0167
rtibia 51.689
rfoot -28.7344 -8.54718
rtoes -12.3999
lfemur -28.958 1.42296 -16.6416
ltibia 50.3765
lfoot -25.2155 8.2582
ltoes -13.6896
98
root -0.29156 14.9123 -1.77833 9.09954 0.118728 -0.00957108
lowerback 2.80894 -1.35877 -0.52593
upperback -6.12552 -1.87428 -0.107961
thorax -7.97219 -0.895228 0.362403
lowerneck -15.2294 -1.08692 4.33989
upperneck 37.6974 -1.87576 -3.41002
head 15.8189 -0.672242 -2.58491
rclavicle 2.08103e-015 2.78299e-015
rhumerus 33.0773 9.88609 -62.1775
rradius 64.9055
rwrist -1.80062
rhand 34.0492 -37.531
rfingers 7.12502
rthumb 57.3058 -53.8593
lclavicle 2.08103e-015 2.78299e-015
lhumerus 27.5869 -8.21486 56.784
lradius 79.6277
lwrist -9.10644
lhand 36.6325 26.9647
lfingers 7.12502
lthumb 59.55 41.2089
rfemur -28.371 -6.87457 16.9914
rtibia 51.6847
rfoot -28.7215 -8.55894
rtoes -12.476
lfemur -28.9611 1.40719 -16.6696
ltibia 50.3823
lfoot -25.243 8.26466
ltoes -13.6446
99
root -0.28915 14.9111 -1.7787 9.09729 0.120737 -0.0299693
lowerback 2.80962 -1.35154 -0.504956
upperback -6.11948 -1.86229 -0.0969965
thorax -7.96642 -0.890259 0.360946
lowerneck -15.2393 -1.0101 4.39907
upperneck 37.792 -1.78088 -3.40426
head 15.8747 -0.620448 -2.58049
rclavicle -2.76435e-015 1.98785e-016
rhumerus 33.0739 9.8973 -62.1695
rradius 64.9007
rwrist -1.78564
rhand 34.0575 -37.5417
rfingers 7.12502
rthumb 57.3131 -53.8639
lclavicle -2.76435e-015 1.98785e-016
lhumerus 27.6129 -8.22005 56.7743
lradius 79.6304
lwrist -9.12196
lhand 36.6646 26.987
lfingers 7.12502
lthumb 59.5775 41.2033
rfemur -28.3634 -6.87148 17.0009
rtibia 51.6816
rfoot -28.7546 -8.54821
rtoes -12.4147
lfemur -28.9614 1.41585 -16.6605
ltibia 50.3954
lfoot -25.2467 8.27128
ltoes -13.6751
100
root -0.287001 14.9109 -1.77959 9.08508 0.129517 -0.031363
lowerback 2.85943 -1.34308 -0.510599
upperback -6.1461 -1.85132 -0.0885581
thorax -8.02408 -0.883773 0.373693
lowerneck -15.2092 -0.944002 4.46322
upperneck 37.9176 -1.6982 -3.40905
head 15.9359 -0.574005 -2.58396
rclavicle -2.84883e-014 5.96354e-016
rhumerus 33.0041 9.95424 -62.14
rradius 64.9086
rwrist -1.8798
rhand 33.7916 -37.6506
rfingers 7.12502
rthumb 57.0796 -54.17
lclavicle -2.84883e-014 5.96354e-016
lhumerus 27.5918 -8.27163 56.7809
lradius 79.6265
lwrist -9.11283
lhand 36.6494 26.9646
lfingers 7.12502
lthumb 59.5645 41.1941
rfemur -28.3498 -6.87862 16.9938
rtibia 51.6763
rfoot -28.7309 -8.56634
rtoes -12.5435
lfemur -28.9547 1.40851 -16.6688
ltibia 50.3978
lfoot -25.2568 8.26387
ltoes -13.5498
101
root -0.284753 14.9103 -1.78013 9.06255 0.142756 -0.0345759
lowerback 2.89885 -1.33288 -0.503357
upperback -6.15459 -1.83743 -0.0884197
thorax -8.05674 -0.877124 0.369648
lowerneck -15.1901 -0.879082 4.51071
upperneck 38.0133 -1.62782 -3.37302
head 15.9851 -0.529872 -2.56782
rclavicle 3.36878e-014 7.95139e-016
rhumerus 32.9568 9.97128 -62.1167
rradius 64.8782
rwrist -1.88199
rhand 33.8192 -37.6581
rfingers 7.12502
rthumb 57.1039 -54.1572
lclavicle 3.36878e-014 7.95139e-016
lhumerus 27.5585 -8.30884 56.7958
lradius 79.6532
lwrist -9.1234
lhand 36.6322 26.9802
lfingers 7.12502
lthumb 59.5497 41.2247
rfemur -28.3187 -6.88147 16.9825
rtibia 51.6722
rfoot -28.7475 -8.55347
rtoes -12.5303
lfemur -28.9352 1.40648 -16.6769
ltibia 50.4041
lfoot -25.2818 8.26879
ltoes -13.5927
102
root -0.281866 14.9102 -1.7811 9.05832 0.152862 -0.0394047
lowerback 2.91828 -1.31924 -0.475491
upperback -6.17309 -1.81836 -0.10186
thorax -8.08966 -0.869727 0.338925
lowerneck -15.1325 -0.823969 4.57722
upperneck 38.1096 -1.56996 -3.35425
head 16.0239 -0.49078 -2.56395
rclavicle -1.71824e-014 -1.27222e-014
rhumerus 32.8898 9.95916 -62.1524
rradius 64.9012
rwrist -1.83553
rhand 33.8355 -37.6456
rfingers 7.12502
rthumb 57.1182 -54.1327
lclavicle -1.71824e-014 -1.27222e-014
lhumerus 27.5723 -8.37528 56.7901
lradius 79.6578
lwrist -9.11778
lhand 36.6948 27.0115
lfingers 7.12502
lthumb 59.6035 41.2014
rfemur -28.31 -6.89577 16.9771
rtibia 51.6649
rfoot -28.7263 -8.56458
rtoes -12.6531
lfemur -28.9414 1.39368 -16.6852
ltibia 50.4117
lfoot -25.2908 8.27244
ltoes -13.4752
103
root -0.279657 14.9095 -1.78086 9.04511 0.169351 -0.0551037
lowerback 2.90291 -1.31424 -0.458089
upperback -6.15583 -1.80986 -0.0983726
thorax -8.06239 -0.866676 0.331335
lowerneck -15.1607 -0.756086 4.6304
upperneck 38.2321 -1.4992 -3.31993
head 16.0989 -0.445253 -2.5513
rclavicle -9.70939e-015 4.37326e-015
rhumerus 32.8847 9.95494 -62.1638
rradius 64.8831
rwrist -1.84178
rhand 33.7605 -37.5755
rfingers 7.12502
rthumb 57.0523 -54.1178
lclavicle -9.70939e-015 4.37326e-015
lhumerus 27.543 -8.37573 56.812
lradius 79.6572
lwrist -9.11558
lhand 36.6748 26.9548
lfingers 7.12502
lthumb 59.5863 41.1622
rfemur -28.2849 -6.90417 16.9824
rtibia 51.6594
rfoot -28.735 -8.55321
rtoes -12.5955
lfemur -28.9257 1.40209 -16.6808
ltibia 50.4129
lfoot -25.302 8.27101
ltoes -13.5007
104
root -0.278213 14.9087 -1.78176 9.02479 0.163937 -0.0853675
lowerback 2.92565 -1.29454 -0.437425
upperback -6.16363 -1.78191 -0.09548
thorax -8.0849 -0.853937 0.320801
lowerneck -15.1321 -0.694848 4.7048
upperneck 38.3551 -1.43485 -3.30485
head 16.1596 -0.402068 -2.55079
rclavicle 9.46712e-015 -7.95139e-016
rhumerus 32.8253 9.95706 -62.1648
rradius 64.8847
rwrist -1.84245
rhand 33.7364 -37.5412
rfingers 7.12502
rthumb 57.0311 -54.1013
lclavicle 9.46712e-015 -7.95139e-016
lhumerus 27.524 -8.43222 56.8378
lradius 79.6528
lwrist -9.11215
lhand 36.7148 26.9248
lfingers 7.12502
lthumb 59.6206 41.0973
rfemur -28.2682 -6.87709 17.0062
rtibia 51.6532
rfoot -28.7228 -8.5598
rtoes -12.5873
lfemur -28.9132 1.42712 -16.6544
ltibia 50.4186
lfoot -25.3131 8.25784
ltoes -13.4551
105
root -0.275754 14.9097 -1.78158 9.00332 0.185367 -0.0489184
lowerback 2.93252 -1.29516 -0.478973
upperback -6.15571 -1.78593 -0.100065
thorax -8.07921 -0.853494 0.339654
lowerneck -15.1549 -0.630014 4.72669
upperneck 38.4899 -1.36368 -3.25632
head 16.2409 -0.35871 -2.52636
rclavicle -1.13742e-014 6.16232e-015
rhumerus 32.8035 9.98607 -62.1431
rradius 64.8872
rwrist -1.85075
rhand 33.7397 -37.5468
rfingers 7.12502
rthumb 57.034 -54.1044
lclavicle -1.13742e-014 6.16232e-015
lhumerus 27.5682 -8.45737 56.833
lradius 79.6763
lwrist -9.07718
lhand 36.7636 27.0446
lfingers 7.12502
lthumb 59.6626 41.1743
rfemur -28.2352 -6.9074 16.9542
rtibia 51.65
rfoot -28.7185 -8.56529
rtoes -12.6253
lfemur -28.8852 1.42152 -16.7088
ltibia 50.4056
lfoot -25.3055 8.26338
ltoes -13.5242
106
root -0.273946 14.9097 -1.78232 8.99304 0.197466 -0.0591983
lowerback 2.95905 -1.28763 -0.467931
upperback -6.17302 -1.77549 -0.102148
thorax -8.11404 -0.848876 0.331233
lowerneck -15.1204 -0.564326 4.78336
upperneck 38.6161 -1.29731 -3.21364
head 16.3034 -0.313319 -2.51003
rclavicle 2.3264e-014 3.77691e-015
rhumerus 32.7476 9.99087 -62.172
rradius 64.891
rwrist -1.73619
rhand 33.8701 -37.4741
rfingers 7.12502
rthumb 57.1487 -53.9356
lclavicle 2.3264e-014 3.77691e-015
lhumerus 27.5479 -8.50121 56.8582
lradius 79.6793
lwrist -9.05384
lhand 36.7271 27.0489
lfingers 7.12502
lthumb 59.6312 41.2106
rfemur -28.2196 -6.91003 16.9594
rtibia 51.6461
rfoot -28.7206 -8.56415
rtoes -12.5555
lfemur -28.8834 1.4408 -16.7071
ltibia 50.4078
lfoot -25.2996 8.2469
ltoes -13.5469
107
root -0.271532 14.9102 -1.78231 8.96691 0.189588 -0.0267591
lowerback 2.94071 -1.27564 -0.502686
upperback -6.14699 -1.76251 -0.117887
thorax -8.07459 -0.841135 0.331966
lowerneck -15.1671 -0.50404 4.8381
upperneck 38.762 -1.24405 -3.16993
head 16.3959 -0.272955 -2.49723
rclavicle 5.10007e-015 -4.17448e-015
rhumerus 32.7413 9.99263 -62.1727
rradius 64.8893
rwrist -1.67217
rhand 33.8749 -37.4648
rfingers 7.12502
rthumb 57.1528 -53.9228
lclavicle 5.10007e-015 -4.17448e-015
lhumerus 27.5437 -8.51636 56.8773
lradius 79.6739
lwrist -9.01458
lhand 36.7637 27.0393
lfingers 7.12502
lthumb 59.6627 41.1689
rfemur -28.188 -6.9132 16.9085
rtibia 51.6401
rfoot -28.7099 -8.56238
rtoes -12.5719
lfemur -28.8407 1.42439 -16.753
ltibia 50.3945
lfoot -25.3063 8.24241
ltoes -13.4538
108
root -0.269491 14.9097 -1.78282 8.94713 0.1843 -0.0644102
lowerback 2.94823 -1.26773 -0.467988
upperback -6.13959 -1.74891 -0.110605
thorax -8.07187 -0.83635 0.318956
lowerneck -15.1955 -0.435872 4.89029
upperneck 38.9132 -1.17753 -3.12486
head 16.4882 -0.227187 -2.48076
rclavicle 1.72073e-015 1.98785e-016
rhumerus 32.7331 10.0506 -62.1608
rradius 64.8734
rwrist -1.71572
rhand 33.6352 -37.5706
rfingers 7.12502
rthumb 56.9421 -54.2047
lclavicle 1.72073e-015 1.98785e-016
lhumerus 27.5387 -8.53746 56.8897
lradius 79.6722
lwrist -9.00123
lhand 36.587 27.0029
lfingers 7.12502
lthumb 59.5108 41.2867
rfemur -28.1664 -6.90532 16.9423
rtibia 51.6256
rfoot -28.6813 -8.58737
rtoes -12.6633
lfemur -28.8274 1.46419 -16.7219
ltibia 50.4006
lfoot -25.2972 8.21279
ltoes -13.4758
109
root -0.267538 14.9105 -1.78336 8.92336 0.189587 -0.0686353
lowerback 2.96082 -1.25231 -0.460045
upperback -6.14592 -1.72855 -0.122547
thorax -8.08687 -0.827143 0.300387
lowerneck -15.1742 -0.383682 4.96344
upperneck 39.0432 -1.13266 -3.09644
head 16.5555 -0.190097 -2.47747
rclavicle 1.4474e-015 5.76476e-015
rhumerus 32.6777 10.0641 -62.1614
rradius 64.8347
rwrist -1.60747
rhand 33.6255 -37.5182
rfingers 7.12502
rthumb 56.9335 -54.1594
lclavicle 1.4474e-015 5.76476e-015
lhumerus 27.5409 -8.60887 56.9218
lradius 79.6575
lwrist -9.02729
lhand 36.8128 27.0606
lfingers 7.12502
lthumb 59.7048 41.1472
rfemur -28.1322 -6.88393 16.9381
rtibia 51.6096
rfoot -28.6634 -8.60246
rtoes -12.6182
lfemur -28.801 1.4596 -16.7259
ltibia 50.3894
lfoot -25.2906 8.21987
ltoes -13.4747
